HIERARCHY
ROOT Hips
{
	OFFSET 0.000000 0.000000 0.000000
	CHANNELS 6 Xposition Yposition Zposition Xrotation Yrotation Zrotation
	JOINT LeftUpLeg_virtual
	{
		OFFSET 0.000000 0.000000 0.000000
		CHANNELS 3 Xrotation Yrotation Zrotation
		JOINT LeftUpLeg
		{
			OFFSET 15.427100 -6.655098 0.678600
			CHANNELS 3 Xrotation Yrotation Zrotation
			JOINT LeftLeg
			{
				OFFSET 4.081073 -39.591068 13.024000
				CHANNELS 3 Xrotation Yrotation Zrotation
				JOINT LeftFoot
				{
					OFFSET -4.081074 -37.707932 -15.979700
					CHANNELS 3 Xrotation Yrotation Zrotation
					JOINT LeftToeBase
					{
						OFFSET 5.346399 -15.068900 20.645000
						CHANNELS 3 Xrotation Yrotation Zrotation
						JOINT LeftToe_End
						{
							OFFSET 2.754700 0.931300 11.300900
							CHANNELS 3 Xrotation Yrotation Zrotation
							End Site
							{
								OFFSET 0 0 0
							}
						}
					}
				}
			}
		}
	}
	JOINT RightUpLeg_virtual
	{
		OFFSET 0.000000 0.000000 0.000000
		CHANNELS 3 Xrotation Yrotation Zrotation
		JOINT RightUpLeg
		{
			OFFSET -15.569500 -6.655098 0.678600
			CHANNELS 3 Xrotation Yrotation Zrotation
			JOINT RightLeg
			{
				OFFSET -4.081825 -39.591045 13.023800
				CHANNELS 3 Xrotation Yrotation Zrotation
				JOINT RightFoot
				{
					OFFSET 4.081824 -37.707954 -15.979600
					CHANNELS 3 Xrotation Yrotation Zrotation
					JOINT RightToeBase
					{
						OFFSET -5.346400 -15.068900 20.645000
						CHANNELS 3 Xrotation Yrotation Zrotation
						JOINT RightToe_End
						{
							OFFSET -2.754700 0.931300 11.300900
							CHANNELS 3 Xrotation Yrotation Zrotation
							End Site
							{
								OFFSET 0 0 0
							}
						}
					}
				}
			}
		}
	}
	JOINT Spine_virtual
	{
		OFFSET 0.000000 0.000000 0.000000
		CHANNELS 3 Xrotation Yrotation Zrotation
		JOINT Spine
		{
			OFFSET -0.279200 12.230698 -2.892100
			CHANNELS 3 Xrotation Yrotation Zrotation
			JOINT Spine1
			{
				OFFSET -0.232667 10.192268 -1.242267
				CHANNELS 3 Xrotation Yrotation Zrotation
				JOINT Spine1_split
				{
					OFFSET -0.232667 10.192268 -1.242267
					CHANNELS 3 Xrotation Yrotation Zrotation
					JOINT Spine2
					{
						OFFSET -0.232667 10.192268 -1.242267
						CHANNELS 3 Xrotation Yrotation Zrotation
						JOINT Neck_virtual
						{
							OFFSET 0.000000 0.000000 0.000000
							CHANNELS 3 Xrotation Yrotation Zrotation
							JOINT Neck
							{
								OFFSET -0.418800 17.814194 8.416900
								CHANNELS 3 Xrotation Yrotation Zrotation
								JOINT Head
								{
									OFFSET 0.000000 7.031097 3.806800
									CHANNELS 3 Xrotation Yrotation Zrotation
									JOINT HeadTop_End
									{
										OFFSET 0.000000 24.646606 12.978600
										CHANNELS 3 Xrotation Yrotation Zrotation
										End Site
										{
											OFFSET 0 0 0
										}
									}
								}
							}
						}
						JOINT LeftShoulder_virtual
						{
							OFFSET 0.000000 0.000000 0.000000
							CHANNELS 3 Xrotation Yrotation Zrotation
							JOINT LeftShoulder
							{
								OFFSET 8.476499 7.247704 -3.868750
								CHANNELS 3 Xrotation Yrotation Zrotation
								JOINT LeftShoulder_split
								{
									OFFSET 8.476499 7.247704 -3.868750
									CHANNELS 3 Xrotation Yrotation Zrotation
									JOINT LeftArm
									{
										OFFSET 9.308998 -2.777710 0.208600
										CHANNELS 3 Xrotation Yrotation Zrotation
										JOINT LeftForeArm
										{
											OFFSET 29.972298 0.000000 0.000000
											CHANNELS 3 Xrotation Yrotation Zrotation
											JOINT LeftHand
											{
												OFFSET 26.026505 0.000000 0.000000
												CHANNELS 3 Xrotation Yrotation Zrotation
												End Site
												{
													OFFSET 0 0 0
												}
											}
										}
									}
								}
							}
						}
						JOINT RightShoulder_virtual
						{
							OFFSET 0.000000 0.000000 0.000000
							CHANNELS 3 Xrotation Yrotation Zrotation
							JOINT RightShoulder
							{
								OFFSET -7.570500 7.247704 -3.868750
								CHANNELS 3 Xrotation Yrotation Zrotation
								JOINT RightShoulder_split
								{
									OFFSET -7.570500 7.247704 -3.868750
									CHANNELS 3 Xrotation Yrotation Zrotation
									JOINT RightArm
									{
										OFFSET -9.308998 -2.777710 0.208500
										CHANNELS 3 Xrotation Yrotation Zrotation
										JOINT RightForeArm
										{
											OFFSET -29.972300 0.000000 0.000000
											CHANNELS 3 Xrotation Yrotation Zrotation
											JOINT RightHand
											{
												OFFSET -26.026505 0.000000 0.000000
												CHANNELS 3 Xrotation Yrotation Zrotation
												End Site
												{
													OFFSET 0 0 0
												}
											}
										}
									}
								}
							}
						}
					}
				}
			}
		}
	}
}
MOTION
Frames: 11
Frame Time: 0.03333333
2.911922 80.126709 -0.569771 0.000000 0.000000 0.000000 7.705132 -10.596735 1.545659 -50.281261 2.277346 23.466660 40.334258 3.020217 3.965468 6.923461 0.621029 -19.361179 -1.160275 0.000001 -0.000002 0.000000 0.000000 0.000000 7.705132 -10.596735 1.545659 -24.405347 -2.725299 -34.235739 34.672974 1.591241 -0.112155 -10.882890 -6.562087 30.924289 -0.271503 0.000041 -0.000005 0.000000 0.000000 0.000000 7.705132 -10.596735 1.545659 7.617992 1.748008 -2.428260 6.431363 1.228089 -0.932161 0.000000 0.000000 0.000000 0.000000 0.000000 0.000000 6.450694 1.172316 -0.845379 -3.222593 -0.333307 -1.041939 -12.897083 -4.165314 4.309511 0.000000 0.000000 0.000000 6.450694 1.172316 -0.845379 5.349782 -35.475921 4.326030 0.000000 0.000000 0.000000 -77.161214 -31.121344 -22.573246 0.000013 -27.636902 0.000003 0.000000 0.000000 0.000000 6.450694 1.172316 -0.845379 3.654526 31.100433 -18.637127 0.000000 0.000000 0.000000 -34.428979 31.033087 9.535806 -0.000001 29.388262 -0.000000 0.000000 0.000000 0.000000 
3.171124 79.667297 -0.392971 0.000000 0.000000 0.000000 7.727463 -9.855714 1.180163 -51.196854 1.677560 23.334086 41.435544 2.586248 3.646740 6.480507 0.661853 -18.871570 -1.081816 0.000006 0.000005 0.000000 0.000000 0.000000 7.727463 -9.855714 1.180163 -24.121363 -3.281512 -34.480468 34.984615 1.585865 -0.074259 -11.459026 -6.816529 31.154480 -0.183039 -0.000006 0.000007 0.000000 0.000000 0.000000 7.727463 -9.855714 1.180163 7.639860 1.526371 -2.538101 6.433795 1.091084 -1.028594 0.000000 0.000000 0.000000 0.000000 0.000000 0.000000 6.452323 1.034179 -0.954309 -4.162269 -0.548713 -0.475728 -12.750507 -4.641915 4.905306 0.000000 0.000000 0.000000 6.452323 1.034179 -0.954309 5.318314 -35.463701 4.617416 0.000000 0.000000 0.000000 -75.973178 -32.528093 -21.224051 0.000003 -27.688212 0.000001 0.000000 0.000000 0.000000 6.452323 1.034179 -0.954309 3.343502 29.595681 -18.253976 0.000000 0.000000 0.000000 -35.737599 31.911300 10.742125 -0.000001 29.323430 0.000001 0.000000 0.000000 0.000000 
3.429812 79.203606 -0.219540 0.000000 0.000000 0.000000 7.524574 -9.726617 1.072962 -51.900036 1.916038 23.124678 42.630807 2.165653 4.053206 5.988330 0.697727 -18.707004 -1.124407 -0.000003 -0.000001 0.000000 0.000000 0.000000 7.524574 -9.726617 1.072962 -23.954911 -3.252936 -34.756708 35.472225 1.725491 -0.178997 -11.885878 -7.003732 31.371844 -0.157210 0.000005 0.000002 0.000000 0.000000 0.000000 7.524574 -9.726617 1.072962 7.718683 1.440857 -2.687770 6.493214 1.049444 -1.127364 0.000000 0.000000 0.000000 0.000000 0.000000 0.000000 6.510260 0.996294 -1.058785 -4.634159 -0.722705 -0.109982 -12.058778 -5.086244 5.266005 0.000000 0.000000 0.000000 6.510260 0.996294 -1.058785 5.340322 -35.549516 4.695806 0.000000 0.000000 0.000000 -75.314884 -34.349646 -20.711830 -0.000006 -26.522338 -0.000003 0.000000 0.000000 0.000000 6.510260 0.996294 -1.058785 3.150977 28.391010 -18.024830 0.000000 0.000000 0.000000 -36.963246 32.955881 12.147688 -0.000000 28.192827 -0.000003 0.000000 0.000000 0.000000 
3.677227 78.884811 -0.049152 0.000000 0.000000 0.000000 7.349739 -9.816680 1.001608 -52.246770 1.992102 23.003710 43.573977 2.064200 4.376332 5.604817 0.730298 -18.719226 -1.240407 0.000004 -0.000008 0.000000 0.000000 0.000000 7.349739 -9.816680 1.001608 -23.966753 -3.262671 -34.777100 35.786411 1.928067 -0.629818 -12.072370 -7.111727 31.649130 -0.161916 0.000012 0.000004 0.000000 0.000000 0.000000 7.349739 -9.816680 1.001608 7.835651 1.476399 -2.833094 6.571229 1.075195 -1.209224 0.000000 0.000000 0.000000 0.000000 0.000000 0.000000 6.588416 1.023078 -1.139721 -4.789394 -0.776672 -0.029818 -11.618346 -5.227631 5.306730 0.000000 0.000000 0.000000 6.588416 1.023078 -1.139721 5.378046 -35.693524 4.719453 0.000000 0.000000 0.000000 -74.900899 -35.507654 -20.474260 0.000001 -25.702166 0.000014 0.000000 0.000000 0.000000 6.588416 1.023078 -1.139721 3.087125 28.020841 -18.114913 0.000000 0.000000 0.000000 -37.404520 33.328127 13.015233 -0.000001 27.211329 0.000002 0.000000 0.000000 0.000000 
3.908908 78.764633 0.094845 0.000000 0.000000 0.000000 7.196613 -9.793639 0.944510 -51.984867 1.375380 23.033423 44.028806 2.370881 3.852479 5.384621 0.776284 -18.642928 -1.341892 -0.000005 0.000010 0.000000 0.000000 0.000000 7.196613 -9.793639 0.944510 -23.701602 -3.299906 -34.867330 35.709288 1.942302 -0.819495 -12.069253 -7.177030 31.894931 -0.178082 -0.000000 -0.000007 0.000000 0.000000 0.000000 7.196613 -9.793639 0.944510 7.950966 1.575692 -2.938410 6.633160 1.133664 -1.264343 0.000000 0.000000 0.000000 0.000000 0.000000 0.000000 6.651736 1.079798 -1.191792 -4.848851 -0.759055 -0.031684 -11.718056 -5.107046 5.206409 0.000000 0.000000 0.000000 6.651736 1.079798 -1.191792 5.405632 -35.836035 4.754109 0.000000 0.000000 0.000000 -74.604831 -35.726817 -20.246602 0.000005 -25.748157 0.000018 0.000000 0.000000 0.000000 6.651736 1.079798 -1.191792 3.094713 28.222432 -18.442745 0.000000 0.000000 0.000000 -37.066094 33.031266 13.371208 -0.000002 26.900268 0.000003 0.000000 0.000000 0.000000 
4.105607 78.751640 0.136501 0.000000 0.000000 0.000000 6.979326 -10.078580 0.828031 -51.741234 1.349698 23.201120 44.303995 2.483834 3.771064 5.145796 0.816258 -18.602051 -1.360337 -0.000002 -0.000008 0.000000 0.000000 0.000000 6.979326 -10.078580 0.828031 -23.338862 -2.991454 -34.885386 35.434472 1.905742 -0.602396 -11.881542 -7.138970 31.900282 -0.185084 0.000000 0.000000 0.000000 0.000000 0.000000 6.979326 -10.078580 0.828031 8.030107 1.661836 -3.018920 6.666225 1.198647 -1.295133 0.000000 0.000000 0.000000 0.000000 0.000000 0.000000 6.685796 1.144273 -1.221078 -4.956893 -0.760936 0.053074 -12.086989 -4.999325 5.178173 0.000000 0.000000 0.000000 6.685796 1.144273 -1.221078 5.423463 -35.957688 4.815032 0.000000 0.000000 0.000000 -74.434992 -35.419148 -20.053627 0.000017 -26.193984 0.000019 0.000000 0.000000 0.000000 6.685796 1.144273 -1.221078 3.111202 28.501558 -18.894011 0.000000 0.000000 0.000000 -36.506637 32.537642 13.698107 0.000001 26.937110 -0.000001 0.000000 0.000000 0.000000 
4.231889 78.829880 0.106709 0.000000 0.000000 0.000000 6.897049 -10.327628 0.770004 -51.698993 1.711264 23.240700 44.301457 2.428291 4.008881 5.008252 0.824996 -18.546523 -1.307913 0.000004 -0.000003 0.000000 0.000000 0.000000 6.897049 -10.327628 0.770004 -23.405626 -3.028628 -34.679439 35.184968 1.998359 -0.867107 -11.667434 -7.067783 31.944494 -0.160045 -0.000013 -0.000001 0.000000 0.000000 0.000000 6.897049 -10.327628 0.770004 8.062263 1.728348 -3.051247 6.674124 1.258639 -1.304318 0.000000 0.000000 0.000000 0.000000 0.000000 0.000000 6.693596 1.206993 -1.230781 -5.152849 -0.813301 0.197512 -12.386598 -5.081353 5.247018 0.000000 0.000000 0.000000 6.693596 1.206993 -1.230781 5.439458 -36.062265 4.897141 0.000000 0.000000 0.000000 -74.375480 -35.059894 -19.971128 -0.000001 -26.537653 -0.000005 0.000000 0.000000 0.000000 6.693596 1.206993 -1.230781 3.097946 28.570784 -19.404084 0.000000 0.000000 0.000000 -36.196666 32.206152 14.327191 0.000001 26.869968 -0.000001 0.000000 0.000000 0.000000 
4.308899 78.986740 0.044376 0.000000 0.000000 0.000000 6.944892 -10.338574 0.734865 -51.678355 1.906517 23.134641 44.030855 2.409393 4.149602 4.997217 0.811266 -18.453108 -1.206448 0.000004 0.000007 0.000000 0.000000 0.000000 6.944892 -10.338574 0.734865 -23.564701 -3.353866 -34.429959 34.876903 2.028488 -1.260495 -11.510020 -6.999168 31.940471 -0.125855 -0.000038 -0.000002 0.000000 0.000000 0.000000 6.944892 -10.338574 0.734865 8.068641 1.799005 -3.029593 6.670682 1.318754 -1.292477 0.000000 0.000000 0.000000 0.000000 0.000000 0.000000 6.689236 1.272013 -1.220112 -5.433328 -0.879482 0.297520 -12.521227 -5.269915 5.314578 0.000000 0.000000 0.000000 6.689236 1.272013 -1.220112 5.462798 -36.211044 5.003517 0.000000 0.000000 0.000000 -74.287514 -34.820079 -19.903760 -0.000016 -26.703279 -0.000006 0.000000 0.000000 0.000000 6.689236 1.272013 -1.220112 3.047231 28.381427 -19.928945 0.000000 0.000000 0.000000 -36.304470 32.120030 15.282593 -0.000002 26.567747 0.000002 0.000000 0.000000 0.000000 
4.319592 79.210304 -0.069885 0.000000 0.000000 0.000000 6.883173 -10.245892 0.665446 -51.281180 1.802966 23.101430 43.510631 2.516940 3.953052 4.930877 0.835198 -18.341752 -0.942611 -0.000004 0.000003 0.000000 0.000000 0.000000 6.883173 -10.245892 0.665446 -23.181392 -3.331297 -34.241166 34.455197 1.647475 -1.219202 -11.430157 -6.961041 31.824194 -0.080238 0.000004 0.000003 0.000000 0.000000 0.000000 6.883173 -10.245892 0.665446 8.083295 1.893147 -2.983192 6.672612 1.394253 -1.268476 0.000000 0.000000 0.000000 0.000000 0.000000 0.000000 6.689767 1.353599 -1.197029 -5.808967 -0.920654 0.333782 -12.539647 -5.379489 5.311347 0.000000 0.000000 0.000000 6.689767 1.353599 -1.197029 5.509631 -36.539945 5.161898 0.000000 0.000000 0.000000 -73.897852 -34.581535 -19.487568 -0.000012 -26.843395 0.000006 0.000000 0.000000 0.000000 6.689767 1.353599 -1.197029 2.965648 27.961789 -20.403558 0.000000 0.000000 0.000000 -36.918190 32.292055 16.559898 0.000001 26.143367 -0.000000 0.000000 0.000000 0.000000 
4.226346 79.418343 -0.260986 0.000000 0.000000 0.000000 6.740034 -10.387142 0.696084 -50.924190 2.327125 23.120450 42.928111 2.445000 4.160869 4.753654 0.878407 -18.307578 -0.556500 -0.000002 0.000002 0.000000 0.000000 0.000000 6.740034 -10.387142 0.696084 -22.576200 -2.569075 -34.190964 34.213104 0.971411 -0.686773 -11.361020 -6.912396 31.569838 -0.055920 -0.000003 0.000001 0.000000 0.000000 0.000000 6.740034 -10.387142 0.696084 8.119181 1.996223 -2.966128 6.687080 1.485903 -1.249940 0.000000 0.000000 0.000000 0.000000 0.000000 0.000000 6.702451 1.452781 -1.179416 -6.279720 -0.932728 0.389369 -12.443418 -5.270477 5.159094 0.000000 0.000000 0.000000 6.702451 1.452781 -1.179416 5.598187 -37.142507 5.382925 0.000000 0.000000 0.000000 -72.919100 -34.077412 -18.185039 -0.000003 -27.043649 -0.000017 0.000000 0.000000 0.000000 6.702451 1.452781 -1.179416 2.861864 27.340185 -20.780828 0.000000 0.000000 0.000000 -38.205438 32.882320 18.357756 -0.000002 25.664782 0.000000 0.000000 0.000000 0.000000 
4.117599 79.670540 -0.489101 0.000000 0.000000 0.000000 6.511353 -10.830450 0.941003 -50.334475 3.313516 23.129085 42.194009 2.351400 4.505502 4.477834 0.947701 -18.336836 -0.088774 0.000008 0.000003 0.000000 0.000000 0.000000 6.511353 -10.830450 0.941003 -22.509913 -1.943774 -34.148214 34.120200 0.790572 -0.579686 -11.070403 -6.737678 31.256520 -0.046250 0.000000 -0.000001 0.000000 0.000000 0.000000 6.511353 -10.830450 0.941003 8.153216 2.065496 -2.963347 6.704765 1.556217 -1.246260 0.000000 0.000000 0.000000 0.000000 0.000000 0.000000 6.718208 1.531485 -1.177051 -6.740753 -0.921241 0.592966 -12.208290 -4.759972 4.624850 0.000000 0.000000 0.000000 6.718208 1.531485 -1.177051 5.727292 -37.922696 5.595007 0.000000 0.000000 0.000000 -71.281712 -32.961339 -15.608676 -0.000008 -27.326579 0.000001 0.000000 0.000000 0.000000 6.718208 1.531485 -1.177051 2.752118 26.603360 -21.112514 0.000000 0.000000 0.000000 -40.253081 34.239807 20.947779 -0.000003 24.946603 0.000005 0.000000 0.000000 0.000000 
